<?xml version="1.0" encoding="UTF-8" standalone="no"?>
<svg
   xmlns:dc="http://purl.org/dc/elements/1.1/"
   xmlns:cc="http://creativecommons.org/ns#"
   xmlns:rdf="http://www.w3.org/1999/02/22-rdf-syntax-ns#"
   xmlns:svg="http://www.w3.org/2000/svg"
   xmlns="http://www.w3.org/2000/svg"
   xmlns:sodipodi="http://sodipodi.sourceforge.net/DTD/sodipodi-0.dtd"
   xmlns:inkscape="http://www.inkscape.org/namespaces/inkscape"
   width="169.063"
   height="169.063"
   viewBox="0 0 169.063 169.063"
   version="1.1"
   id="svg8"
   sodipodi:docname="instagram.svg"
   inkscape:version="0.92.2 (5c3e80d, 2017-08-06)">
  <metadata
     id="metadata14">
    <rdf:RDF>
      <cc:Work
         rdf:about="">
        <dc:format>image/svg+xml</dc:format>
        <dc:type
           rdf:resource="http://purl.org/dc/dcmitype/StillImage" />
      </cc:Work>
    </rdf:RDF>
  </metadata>
  <defs
     id="defs12" />
  <sodipodi:namedview
     pagecolor="#ffffff"
     bordercolor="#666666"
     borderopacity="1"
     objecttolerance="10"
     gridtolerance="10"
     guidetolerance="10"
     inkscape:pageopacity="0"
     inkscape:pageshadow="2"
     inkscape:window-width="1377"
     inkscape:window-height="957"
     id="namedview10"
     showgrid="false"
     inkscape:zoom="1.3959293"
     inkscape:cx="-4.6563963"
     inkscape:cy="84.531502"
     inkscape:window-x="0"
     inkscape:window-y="30"
     inkscape:window-maximized="0"
     inkscape:current-layer="svg8" />
  <g
     fill="#3c3c3c"
     id="g6"
     style="fill:#000000">
    <path
       d="M122.406 0H46.654C20.93 0 0 20.93 0 46.655v75.752c0 25.726 20.93 46.655 46.654 46.655h75.752c25.727 0 46.656-20.93 46.656-46.655V46.655C169.062 20.93 148.132 0 122.406 0zm31.657 122.407c0 17.455-14.2 31.655-31.656 31.655H46.654C29.2 154.062 15 139.862 15 122.407V46.655C15 29.2 29.2 15 46.654 15h75.752c17.455 0 31.656 14.2 31.656 31.655v75.752z"
       id="path2"
       style="fill:#000000" />
    <path
       d="M84.53 40.97c-24.02 0-43.562 19.542-43.562 43.563 0 24.02 19.542 43.56 43.563 43.56s43.564-19.54 43.564-43.56c0-24.02-19.542-43.563-43.563-43.563zm0 72.123c-15.748 0-28.562-12.812-28.562-28.56 0-15.75 12.813-28.564 28.563-28.564s28.564 12.812 28.564 28.562c0 15.75-12.814 28.56-28.563 28.56zM129.92 28.25c-2.89 0-5.728 1.17-7.77 3.22-2.05 2.04-3.23 4.88-3.23 7.78 0 2.892 1.18 5.73 3.23 7.78 2.04 2.04 4.88 3.22 7.77 3.22 2.9 0 5.73-1.18 7.78-3.22 2.05-2.05 3.22-4.89 3.22-7.78 0-2.9-1.17-5.74-3.22-7.78-2.04-2.05-4.88-3.22-7.78-3.22z"
       id="path4"
       style="fill:#000000" />
  </g>
</svg>
