<svg id="g8" xmlns="http://www.w3.org/2000/svg" width="21.616" height="14.33" viewBox="0 0 21.616 14.33">
  <path id="path2" d="M57.681,0c-1.262,0-4.119.009-6.034,0l-.061.344c1.426.059,1.7.267,1.7,1.751V12.2c0,1.482-.278,1.692-1.7,1.752l-.1.372c.586,0,1.675,0,2.763,0,.965,0,2.112-.006,2.763,0l-.068-.371c-1.427-.06-1.7-.269-1.7-1.752L55.233,2.182C55.379.371,57.169.616,58.5.616c2.626,0,3.091.691,3.388,3.526h.325s0,0,0,0h.163s0,0,0,0h-.163s0,0,0,0H62.7C63,1.308,63.5.6,66.123.6,67.8.547,69.293.772,69.348,2.083V12.189c0,1.482-.277,1.691-1.7,1.751l-.069.389c.637,0,1.8,0,2.763,0,1.088,0,2.174-.006,2.763,0L73,13.94c-1.426-.06-1.7-.269-1.7-1.751V2.081C71.3.6,71.573.391,73,.331L72.938,0h-10.4s0,0,0,0h-.489s0,0,0,0C60.769.009,58.941,0,57.681,0Zm4.368,0h0Z" transform="translate(-51.485)" fill="#fff" fill-rule="evenodd"/>
</svg>
