<svg xmlns="http://www.w3.org/2000/svg" width="151.189" height="115.485" viewBox="0 0 151.189 115.48531"><g fill="#fff"><path d="M4.14 105.896c-2.42 0-4.14 1.953-4.14 4.864 0 2.975 1.656 4.71 4.13 4.71.875 0 1.73-.298 2.41-.845.08-.062.173-.098.272-.11.183 0 .272.236.32.766h.295c-.036-.655-.052-1.545-.052-3.12H7.08c-.007.73-.216 1.44-.6 2.053-.548.662-1.376 1.032-2.23.995-1.682 0-2.947-1.604-2.947-4.5 0-2.823 1.118-4.577 2.817-4.577.885-.037 1.735.34 2.3 1.015.403.563.632 1.235.66 1.923h.295c0-1.51.016-2.355.052-2.99H7.13c-.046.537-.157.777-.333.777-.094-.01-.182-.048-.256-.115-.67-.563-1.524-.86-2.4-.844zm14.188 0c-2.427 0-4.14 1.953-4.14 4.864 0 2.975 1.65 4.71 4.13 4.71 2.422 0 4.14-1.96 4.14-4.866.006-2.973-1.65-4.708-4.125-4.708zm-.052.235c1.6 0 2.88 1.76 2.88 4.526 0 2.693-1.104 4.58-2.792 4.58-1.6 0-2.88-1.763-2.88-4.528.005-2.692 1.1-4.577 2.797-4.577zm14.1-.05c-.5 0-1.365.024-1.964.04-.11 0-.21.005-.32.005-.483 0-.972-.026-1.275-.046v.26c.886.04 1.058.17 1.058 1.12v6.447c0 .942-.172 1.077-1.058 1.114v.26c.366-.025 1-.035 1.62-.035.558 0 1.432.036 1.823.036 2.688.23 4.937-2.01 4.72-4.696 0-2.9-1.496-4.505-4.605-4.505zm-.324.232c2.703 0 3.62 1.4 3.62 4.32 0 2.832-.765 4.415-3.604 4.415-.813 0-.984-.208-.984-1.115v-6.5c0-.896.17-1.12.968-1.12zm17.975 7.308c0-.36.01-.7.036-.937h-.303c-.18 1.718-.505 2.296-2.135 2.296h-.953c-.885 0-1.057-.13-1.057-1.08v-3.12h.864c1.135 0 1.145.887 1.244 1.72h.303c-.063-.99-.08-1.42-.08-1.85 0-.186-.004-.38-.004-.62 0-.3.005-.67.046-1.223h-.302c-.1.62-.08 1.714-1.21 1.714h-.863v-3.067c0-.942.172-1.078 1.052-1.078h1.084c1.38 0 1.578.51 1.75 2.042h.303c-.032-.266-.043-.537-.043-.802 0-.303.027-.927.095-1.536-.814.035-1.934.035-2.724.035-.797 0-2.5 0-3.78-.036v.26c.885.035 1.057.17 1.057 1.113v6.454c0 .942-.172 1.077-1.058 1.114v.26c1.275-.035 3-.035 3.78-.035.87 0 2.1 0 2.985.036-.063-.655-.088-1.337-.088-1.66zm17.932-7.724c-.62 0-1.433.224-1.433.9 0 .376.312.673.686.647.38.026.704-.26.735-.636-.005-.25-.145-.48-.364-.6.104-.098.25-.14.39-.114.777-.046 1.453.538 1.515 1.314-.073.614-.52 1.114-1.126 1.25-1.04.395-2.104.74-3.176 1.026-1.188.405-1.803 1-1.803 1.896-.01.884.735 1.587 1.615 1.524.735.093 1.412-.396 1.557-1.12.052-.615-.656-1-1.145-.615-.485.385-.272 1.166.343 1.25-.203.208-.495.312-.782.287-.613.025-1.14-.434-1.202-1.043.105-.583.563-1.036 1.147-1.13.348-.13.91-.307 1.5-.5.796.282 1.328 1.042 1.312 1.886 0 1.484-1.585 2.38-3.423 2.38-1.958 0-3.5-1.016-3.5-2.803-.047-1.036.672-1.942 1.693-2.134.297.15.62.25.953.286.172.035.34-.074.364-.246 0-.203-.213-.3-.525-.3-.27.003-.537.03-.808.076-.427-.37-.672-.91-.66-1.48-.084-.87.635-1.608 1.51-1.55.38-.058.765.103.99.42-.38.017-.688.33-.693.71-.005.375.307.676.682.656.396.015.724-.297.73-.693-.02-.355-.198-.683-.48-.896-.395-.287-.874-.422-1.36-.39-1.447 0-2.197.78-2.197 1.624.058.772.574 1.433 1.312 1.673-1.344.27-2.333 1.41-2.405 2.776 0 2 1.963 3.234 4.22 3.234 2.513 0 3.977-1.537 3.977-3.11.046-.963-.526-1.85-1.427-2.198.656-.192 1.3-.416 1.932-.683.74-.306 1.224-1.02 1.24-1.817.01-1.03-.87-1.85-1.896-1.76zm14.748.183c-.5 0-1.37.024-1.968.04-.11 0-.21.005-.32.005-.483 0-.972-.026-1.275-.046v.26c.886.04 1.058.17 1.058 1.12v6.447c0 .942-.172 1.077-1.058 1.114v.26c.366-.025 1.01-.035 1.62-.035.558 0 1.432.036 1.823.036 2.688.23 4.94-2.01 4.72-4.696 0-2.9-1.496-4.505-4.6-4.505zm-.328.232c2.704 0 3.625 1.4 3.625 4.32 0 2.832-.77 4.415-3.61 4.415-.807 0-.983-.208-.983-1.115v-6.5c0-.896.176-1.12.968-1.12zm17.975 7.308c-.006-.313.01-.625.036-.937h-.297c-.186 1.718-.51 2.296-2.14 2.296H97c-.885 0-1.057-.13-1.057-1.08v-3.12h.864c1.13 0 1.146.887 1.25 1.72h.298c-.063-.99-.074-1.42-.074-1.85 0-.186-.01-.38-.01-.62 0-.3.01-.67.047-1.223h-.3c-.1.62-.08 1.714-1.21 1.714h-.864v-3.067c0-.942.172-1.078 1.057-1.078h1.084c1.38 0 1.577.51 1.75 2.042h.297c-.026-.266-.042-.537-.037-.802 0-.303.027-.927.09-1.536-.808.035-1.928.035-2.724.035-.8 0-2.5 0-3.783-.036v.26c.886.035 1.058.17 1.058 1.113v6.454c0 .942-.172 1.077-1.058 1.114v.26c1.282-.035 3-.035 3.782-.035.873 0 2.097 0 2.983.036-.063-.655-.088-1.337-.088-1.66zm9.265-7.688c-1.328-.135-2.48.923-2.453 2.256 0 1.463 1.084 2.172 2.322 2.91 1.207.725 2.03 1.323 2.03 2.375.084.975-.717 1.792-1.692 1.735-1.667 0-2.265-1.38-2.375-2.953h-.297c0 1.833-.016 2.584-.052 3.114h.297c.053-.375.127-.567.288-.567.167.014.317.082.448.18.53.345 1.15.512 1.78.486 1.48.175 2.78-.98 2.772-2.47 0-1.4-.995-2.083-2.35-2.927-1.17-.73-2.193-1.204-2.193-2.38-.014-.876.724-1.573 1.595-1.51 1.443 0 2.04 1.26 2.14 2.5h.297c0-1.636.026-2.194.063-2.652h-.297c-.052.377-.12.57-.287.57-.167-.016-.317-.08-.448-.183-.457-.338-1.02-.51-1.588-.485zm12.792.147c-.4.024-1.057.04-1.657.04-.676 0-1.302-.016-1.667-.04v.26c.885.04 1.052.17 1.052 1.12v6.447c0 .942-.167 1.077-1.052 1.114v.26c.36-.025.99-.035 1.667-.035.6 0 1.256.01 1.657.036v-.26c-.885-.036-1.057-.17-1.057-1.113v-6.448c0-.95.172-1.08 1.057-1.12zm10.56-.184c-2.425 0-4.196 1.91-4.196 4.943 0 2.895 1.573 4.63 4.27 4.63.74.003 1.465-.246 2.038-.71.113-.12.265-.197.427-.22.255.153.397.444.36.74h.26v-2.577c0-.958.09-1.072.662-1.115v-.26c-.313.032-.78.04-1.355.04-.573 0-1.385-.008-1.844-.04v.26c1.1.043 1.32.2 1.32 1.25v1.25c.035.292-.11.573-.377.71-.4.27-.87.41-1.353.405-2.126 0-3.104-1.39-3.104-4.51 0-2.792 1.133-4.562 2.868-4.562.864-.01 1.688.36 2.25 1.015.38.574.61 1.235.657 1.923h.3c0-1.51.012-2.355.053-2.99h-.3c-.053.547-.163.79-.324.79-.105-.008-.193-.056-.267-.128-.656-.552-1.49-.85-2.344-.844zm18.216.183c-.287.024-.77.04-1.21.04-.442 0-1.02-.016-1.333-.04v.26c1.022.04 1.183.3 1.183 1.248v5.563l-4.6-7.07c-.285.024-.635.04-1.015.04-.442 0-.926-.016-1.208-.04v.26c.88.04 1.052.17 1.052 1.12v6.31c0 .954-.172 1.214-1.052 1.25v.26c.282-.025.766-.035 1.208-.035.438 0 1.016.01 1.328.036v-.26c-1.01-.036-1.18-.296-1.18-1.25v-6.858l5.473 8.432h.298v-7.756c0-.948.173-1.208 1.058-1.25zM19.088 77.552c-.53.036-1.38.052-2.16.052h-.808l-3.66 9.808-3.747-9.86c-.374.036-.953.052-1.453.052-.577 0-1.208-.016-1.583-.052v.344c1.156.047 1.38.224 1.38 1.46v8.248c0 1.245-.224 1.584-1.38 1.636v.34c.375-.033 1.006-.05 1.583-.05.573 0 1.328.017 1.735.05v-.34c-1.323-.052-1.547-.39-1.547-1.636v-8.968l4.297 11.025h.27L16.12 78.69v9.093c0 1.236-.22 1.408-1.375 1.46v.34c.474-.033 1.29-.05 2.182-.05.78 0 1.63.017 2.16.05v-.34c-1.155-.052-1.38-.224-1.38-1.46v-8.425c0-1.235.225-1.412 1.38-1.46zm13.48-.083h-.276l-4.01 10.295c-.157.694-.667 1.25-1.34 1.48v.34c.422-.038.85-.058 1.27-.054.605 0 1.32.022 1.97.054v-.34c-.974-.025-1.485-.28-1.485-1.02.032-.484.147-.953.344-1.396l.7-1.797h4.11l1.05 2.787c.11.25.18.522.2.798 0 .473-.38.604-1.21.636v.338c.485-.03 1.303-.052 2.183-.052.65 0 1.364.02 1.828.052v-.337c-.583-.078-1.05-.515-1.176-1.09zm1.156 7.218h-3.86l1.953-5.068zm17.563-7.376c-3.172 0-5.484 2.5-5.484 6.464 0 3.78 2.057 6.047 5.582 6.047.97.01 1.907-.312 2.662-.922.146-.155.344-.26.557-.285.333.197.516.582.47.97h.338v-3.372c0-1.25.12-1.4.864-1.458v-.343c-.407.047-1.02.06-1.77.06-.766 0-1.81-.013-2.402-.06v.343c1.432.057 1.724.256 1.724 1.636v1.63c.047.387-.15.756-.49.933-.526.354-1.145.536-1.775.53-2.776 0-4.058-1.816-4.058-5.9 0-3.65 1.49-5.963 3.75-5.963 1.13-.016 2.21.468 2.948 1.323.494.754.792 1.62.854 2.516h.386c0-1.976.016-3.08.068-3.908h-.39c-.068.713-.208 1.036-.427 1.036-.13-.015-.25-.077-.338-.176-.86-.72-1.948-1.105-3.068-1.1zm22.27 10.1c0-.475.016-.923.047-1.224h-.39c-.24 2.244-.662 3.01-2.793 3.01h-1.248c-1.156 0-1.38-.177-1.38-1.41v-4.085h1.13c1.48 0 1.5 1.16 1.63 2.25h.39c-.082-1.297-.098-1.86-.098-2.417 0-.25-.01-.5-.01-.812 0-.39.01-.88.057-1.6h-.385c-.136.813-.104 2.24-1.584 2.24h-1.128v-4.01c0-1.234.224-1.41 1.38-1.41h1.416c1.803 0 2.063.665 2.287 2.67h.39c-.036-.35-.052-.702-.052-1.05 0-.392.038-1.215.12-2.012-1.057.052-2.52.052-3.562.052-1.025 0-3.27 0-4.942-.052v.344c1.156.047 1.38.224 1.38 1.46v8.425c0 1.24-.224 1.413-1.38 1.465v.34c1.672-.054 3.917-.054 4.943-.054 1.142 0 2.746 0 3.902.054-.084-.865-.115-1.75-.115-2.172zm13.24-9.855c-.52.03-1.38.052-2.16.052-.882 0-1.705-.022-2.178-.053v.34c1.155.05 1.38.223 1.38 1.463v8.427c0 1.234-.225 1.41-1.38 1.458v.343c1.67-.052 3.915-.052 4.936-.052 1.14 0 2.75 0 3.9.052-.083-.864-.113-1.75-.113-2.176 0-.548.014-1.037.052-1.39h-.39c-.24 2.363-.668 3.175-2.804 3.175h-1.243c-1.16 0-1.385-.176-1.385-1.41v-8.432c0-1.235.224-1.412 1.385-1.46v-.343zm17.27 0c-.526.03-1.38.052-2.16.052-.886 0-1.71-.022-2.183-.053v.34c1.156.05 1.38.223 1.38 1.463v8.427c0 1.234-.224 1.41-1.38 1.458v.343c1.672-.052 3.92-.052 4.943-.052 1.14 0 2.745 0 3.9.052-.083-.864-.114-1.75-.114-2.176 0-.548.016-1.037.047-1.39h-.39c-.24 2.363-.667 3.175-2.798 3.175h-1.25c-1.155 0-1.38-.176-1.38-1.41v-8.432c0-1.235.225-1.412 1.38-1.46v-.343zm17.72-.084h-.276L117.5 87.77c-.156.694-.667 1.25-1.34 1.475v.343c.424-.04.85-.057 1.277-.052.6 0 1.314.016 1.964.052v-.343c-.973-.02-1.483-.28-1.483-1.02.03-.48.146-.954.343-1.392l.7-1.802h4.108l1.047 2.793c.114.25.182.52.202.797 0 .473-.385.6-1.208.63v.343c.483-.036 1.302-.052 2.182-.052.645 0 1.364.017 1.828.053v-.342c-.584-.078-1.052-.51-1.183-1.083zm1.156 7.22h-3.86l1.953-5.068zm22.4-7.136c-.374.03-1.004.052-1.583.052-.572 0-1.328-.022-1.74-.053v.34c1.335.05 1.553.39 1.553 1.634v7.267l-6.016-9.24c-.374.03-.833.052-1.333.052-.573 0-1.208-.022-1.584-.053v.34c1.163.05 1.387.223 1.387 1.463v8.244c0 1.245-.224 1.584-1.387 1.636v.34c.376-.033 1.01-.05 1.584-.05.573 0 1.333.017 1.74.05v-.34c-1.324-.052-1.547-.39-1.547-1.636v-8.968l7.156 11.025h.39V79.528c0-1.24.225-1.584 1.38-1.63v-.345zM54.235 56.995c-2.59-.022-7.15 0-10.99 0-4.324 0-8.66.016-10.99 0l.4-1.48c5.673-.24 6.777-1.072 6.777-6.968V8.35c0-5.902-1.104-6.73-6.776-6.965L32.9.015C40.517.036 51.88 0 56.9 0c5.59 0 14.355.052 19.32.016-.408 4.115-.75 8.1-.75 10.115 0 2.61-.063 4.64.098 6.343H73.63C72.45 5.197 70.53 1.62 60.085 1.62h-6.12c-5.677 0-6.776.833-6.776 6.73v40.197c0 5.9 1.1 6.73 6.776 6.97zm42.02 0c2.532.016 7.157 0 10.99 0 4.328 0 8.646-.022 10.99 0l-.402-1.547c-5.672-.24-6.77-1.073-6.77-6.964V8.28c0-5.9 1.098-6.723 6.77-6.963l-.245-1.3H74.276c.407 4.114.65 6.69.75 10.046.062 2.14.062 4.713-.105 6.416h1.944c1.183-11.277 3.1-14.923 13.548-14.923h6.12c5.676 0 6.775.828 6.775 6.73v40.197c0 5.896-1.1 6.724-6.776 6.964z" fill-rule="evenodd"/><path d="M73.66.02h3.137v16.45H73.66z"/><path d="M19.088 77.552c-.53.036-1.38.052-2.16.052h-.808l-3.66 9.808-3.747-9.86c-.374.036-.953.052-1.453.052-.577 0-1.208-.016-1.583-.052v.344c1.156.047 1.38.224 1.38 1.46v8.248c0 1.245-.224 1.584-1.38 1.636v.34c.375-.033 1.006-.05 1.583-.05.573 0 1.328.017 1.735.05v-.34c-1.323-.052-1.547-.39-1.547-1.636v-8.968l4.297 11.025h.27L16.12 78.69v9.093c0 1.236-.22 1.408-1.375 1.46v.34c.474-.033 1.29-.05 2.182-.05.78 0 1.63.017 2.16.05v-.34c-1.155-.052-1.38-.224-1.38-1.46v-8.425c0-1.235.225-1.412 1.38-1.46zm13.48-.083h-.276l-4.01 10.295c-.157.694-.667 1.25-1.34 1.48v.34c.422-.038.85-.058 1.27-.054.605 0 1.32.022 1.97.054v-.34c-.974-.025-1.485-.28-1.485-1.02.032-.484.147-.953.344-1.396l.7-1.797h4.11l1.05 2.787c.11.25.18.522.2.798 0 .473-.38.604-1.21.636v.338c.485-.03 1.303-.052 2.183-.052.65 0 1.364.02 1.828.052v-.337c-.583-.078-1.05-.515-1.176-1.09zm1.156 7.218h-3.86l1.953-5.068zm17.563-7.376c-3.172 0-5.484 2.5-5.484 6.464 0 3.78 2.057 6.047 5.582 6.047.97.01 1.907-.312 2.662-.922.146-.155.344-.26.557-.285.333.197.516.582.47.97h.338v-3.372c0-1.25.12-1.4.864-1.458v-.343c-.407.047-1.02.06-1.77.06-.766 0-1.81-.013-2.402-.06v.343c1.432.057 1.724.256 1.724 1.636v1.63c.047.387-.15.756-.49.933-.526.354-1.145.536-1.775.53-2.776 0-4.058-1.816-4.058-5.9 0-3.65 1.49-5.963 3.75-5.963 1.13-.016 2.21.468 2.948 1.323.494.754.792 1.62.854 2.516h.386c0-1.976.016-3.08.068-3.908h-.39c-.068.713-.208 1.036-.427 1.036-.13-.015-.25-.077-.338-.176-.86-.72-1.948-1.105-3.068-1.1zm22.27 10.1c0-.475.016-.923.047-1.224h-.39c-.24 2.244-.662 3.01-2.793 3.01h-1.248c-1.156 0-1.38-.177-1.38-1.41v-4.085h1.13c1.48 0 1.5 1.16 1.63 2.25h.39c-.082-1.297-.098-1.86-.098-2.417 0-.25-.01-.5-.01-.812 0-.39.01-.88.057-1.6h-.385c-.136.813-.104 2.24-1.584 2.24h-1.128v-4.01c0-1.234.224-1.41 1.38-1.41h1.416c1.803 0 2.063.665 2.287 2.67h.39c-.036-.35-.052-.702-.052-1.05 0-.392.038-1.215.12-2.012-1.057.052-2.52.052-3.562.052-1.025 0-3.27 0-4.942-.052v.344c1.156.047 1.38.224 1.38 1.46v8.425c0 1.24-.224 1.413-1.38 1.465v.34c1.672-.054 3.917-.054 4.943-.054 1.142 0 2.746 0 3.902.054-.084-.865-.115-1.75-.115-2.172zm13.24-9.855c-.52.03-1.38.052-2.16.052-.882 0-1.705-.022-2.178-.053v.34c1.155.05 1.38.223 1.38 1.463v8.427c0 1.234-.225 1.41-1.38 1.458v.343c1.67-.052 3.915-.052 4.936-.052 1.14 0 2.75 0 3.9.052-.083-.864-.113-1.75-.113-2.176 0-.548.014-1.037.052-1.39h-.39c-.24 2.363-.668 3.175-2.804 3.175h-1.243c-1.16 0-1.385-.176-1.385-1.41v-8.432c0-1.235.224-1.412 1.385-1.46v-.343zm17.27 0c-.526.03-1.38.052-2.16.052-.886 0-1.71-.022-2.183-.053v.34c1.156.05 1.38.223 1.38 1.463v8.427c0 1.234-.224 1.41-1.38 1.458v.343c1.672-.052 3.92-.052 4.943-.052 1.14 0 2.745 0 3.9.052-.083-.864-.114-1.75-.114-2.176 0-.548.016-1.037.047-1.39h-.39c-.24 2.363-.667 3.175-2.798 3.175h-1.25c-1.155 0-1.38-.176-1.38-1.41v-8.432c0-1.235.225-1.412 1.38-1.46v-.343zm17.72-.084h-.276L117.5 87.77c-.156.694-.667 1.25-1.34 1.475v.343c.424-.04.85-.057 1.277-.052.6 0 1.314.016 1.964.052v-.343c-.973-.02-1.483-.28-1.483-1.02.03-.48.146-.954.343-1.392l.7-1.802h4.108l1.047 2.793c.114.25.182.52.202.797 0 .473-.385.6-1.208.63v.343c.483-.036 1.302-.052 2.182-.052.645 0 1.364.017 1.828.053v-.342c-.584-.078-1.052-.51-1.183-1.083zm1.156 7.22h-3.86l1.953-5.068zm22.4-7.136c-.374.03-1.004.052-1.583.052-.572 0-1.328-.022-1.74-.053v.34c1.335.05 1.553.39 1.553 1.634v7.267l-6.016-9.24c-.374.03-.833.052-1.333.052-.573 0-1.208-.022-1.584-.053v.34c1.163.05 1.387.223 1.387 1.463v8.244c0 1.245-.224 1.584-1.387 1.636v.34c.376-.033 1.01-.05 1.584-.05.573 0 1.333.017 1.74.05v-.34c-1.324-.052-1.547-.39-1.547-1.636v-8.968l7.156 11.025h.39V79.528c0-1.24.225-1.584 1.38-1.63v-.345zM4.14 105.896c-2.42 0-4.14 1.953-4.14 4.864 0 2.975 1.656 4.71 4.13 4.71.875 0 1.73-.298 2.41-.845.08-.062.173-.098.272-.11.183 0 .272.236.32.766h.295c-.036-.655-.052-1.545-.052-3.12H7.08c-.007.73-.216 1.44-.6 2.053-.548.662-1.376 1.032-2.23.995-1.682 0-2.947-1.604-2.947-4.5 0-2.823 1.118-4.577 2.817-4.577.885-.037 1.735.34 2.3 1.015.403.563.632 1.235.66 1.923h.295c0-1.51.016-2.355.052-2.99H7.13c-.046.537-.157.777-.333.777-.094-.01-.182-.048-.256-.115-.67-.563-1.524-.86-2.4-.844zm14.188 0c-2.427 0-4.14 1.953-4.14 4.864 0 2.975 1.65 4.71 4.13 4.71 2.422 0 4.14-1.96 4.14-4.866.006-2.973-1.65-4.708-4.125-4.708zm-.052.235c1.6 0 2.88 1.76 2.88 4.526 0 2.693-1.104 4.58-2.792 4.58-1.6 0-2.88-1.763-2.88-4.528.005-2.692 1.1-4.577 2.797-4.577zm14.1-.05c-.5 0-1.365.024-1.964.04-.11 0-.21.005-.32.005-.483 0-.972-.026-1.275-.046v.26c.886.04 1.058.17 1.058 1.12v6.447c0 .942-.172 1.077-1.058 1.114v.26c.366-.025 1-.035 1.62-.035.558 0 1.432.036 1.823.036 2.688.23 4.937-2.01 4.72-4.696 0-2.9-1.496-4.505-4.605-4.505zm-.324.232c2.703 0 3.62 1.4 3.62 4.32 0 2.832-.765 4.415-3.604 4.415-.813 0-.984-.208-.984-1.115v-6.5c0-.896.17-1.12.968-1.12zm17.975 7.308c0-.36.01-.7.036-.937h-.303c-.18 1.718-.505 2.296-2.135 2.296h-.953c-.885 0-1.057-.13-1.057-1.08v-3.12h.864c1.135 0 1.145.887 1.244 1.72h.303c-.063-.99-.08-1.42-.08-1.85 0-.186-.004-.38-.004-.62 0-.3.005-.67.046-1.223h-.302c-.1.62-.08 1.714-1.21 1.714h-.863v-3.067c0-.942.172-1.078 1.052-1.078h1.084c1.38 0 1.578.51 1.75 2.042h.303c-.032-.266-.043-.537-.043-.802 0-.303.027-.927.095-1.536-.814.035-1.934.035-2.724.035-.797 0-2.5 0-3.78-.036v.26c.885.035 1.057.17 1.057 1.113v6.454c0 .942-.172 1.077-1.058 1.114v.26c1.275-.035 3-.035 3.78-.035.87 0 2.1 0 2.985.036-.063-.655-.088-1.337-.088-1.66zm17.932-7.724c-.62 0-1.433.224-1.433.9 0 .376.312.673.686.647.38.026.704-.26.735-.636-.005-.25-.145-.48-.364-.6.104-.098.25-.14.39-.114.777-.046 1.453.538 1.515 1.314-.073.614-.52 1.114-1.126 1.25-1.04.395-2.104.74-3.176 1.026-1.188.405-1.803 1-1.803 1.896-.01.884.735 1.587 1.615 1.524.735.093 1.412-.396 1.557-1.12.052-.615-.656-1-1.145-.615-.485.385-.272 1.166.343 1.25-.203.208-.495.312-.782.287-.613.025-1.14-.434-1.202-1.043.105-.583.563-1.036 1.147-1.13.348-.13.91-.307 1.5-.5.796.282 1.328 1.042 1.312 1.886 0 1.484-1.585 2.38-3.423 2.38-1.958 0-3.5-1.016-3.5-2.803-.047-1.036.672-1.942 1.693-2.134.297.15.62.25.953.286.172.035.34-.074.364-.246 0-.203-.213-.3-.525-.3-.27.003-.537.03-.808.076-.427-.37-.672-.91-.66-1.48-.084-.87.635-1.608 1.51-1.55.38-.058.765.103.99.42-.38.017-.688.33-.693.71-.005.375.307.676.682.656.396.015.724-.297.73-.693-.02-.355-.198-.683-.48-.896-.395-.287-.874-.422-1.36-.39-1.447 0-2.197.78-2.197 1.624.058.772.574 1.433 1.312 1.673-1.344.27-2.333 1.41-2.405 2.776 0 2 1.963 3.234 4.22 3.234 2.513 0 3.977-1.537 3.977-3.11.046-.963-.526-1.85-1.427-2.198.656-.192 1.3-.416 1.932-.683.74-.306 1.224-1.02 1.24-1.817.01-1.03-.87-1.85-1.896-1.76zm14.748.183c-.5 0-1.37.024-1.968.04-.11 0-.21.005-.32.005-.483 0-.972-.026-1.275-.046v.26c.886.04 1.058.17 1.058 1.12v6.447c0 .942-.172 1.077-1.058 1.114v.26c.366-.025 1.01-.035 1.62-.035.558 0 1.432.036 1.823.036 2.688.23 4.94-2.01 4.72-4.696 0-2.9-1.496-4.505-4.6-4.505zm-.328.232c2.704 0 3.625 1.4 3.625 4.32 0 2.832-.77 4.415-3.61 4.415-.807 0-.983-.208-.983-1.115v-6.5c0-.896.176-1.12.968-1.12zm17.975 7.308c-.005-.313.01-.625.036-.937h-.297c-.186 1.718-.51 2.296-2.14 2.296H97c-.885 0-1.057-.13-1.057-1.08v-3.12h.864c1.13 0 1.146.887 1.25 1.72h.298c-.063-.99-.074-1.42-.074-1.85 0-.186-.01-.38-.01-.62 0-.3.01-.67.047-1.223h-.3c-.1.62-.08 1.714-1.21 1.714h-.864v-3.067c0-.942.172-1.078 1.057-1.078h1.084c1.38 0 1.577.51 1.75 2.042h.297c-.026-.266-.042-.537-.037-.802 0-.303.027-.927.09-1.536-.808.035-1.928.035-2.724.035-.8 0-2.5 0-3.783-.036v.26c.886.035 1.058.17 1.058 1.113v6.454c0 .942-.172 1.077-1.058 1.114v.26c1.282-.035 3-.035 3.782-.035.873 0 2.097 0 2.983.036-.063-.655-.088-1.337-.088-1.66zm9.265-7.688c-1.328-.135-2.48.923-2.453 2.256 0 1.463 1.084 2.172 2.322 2.91 1.207.725 2.03 1.323 2.03 2.375.084.975-.717 1.792-1.692 1.735-1.667 0-2.265-1.38-2.375-2.953h-.297c0 1.833-.016 2.584-.052 3.114h.297c.053-.375.127-.567.288-.567.167.014.317.082.448.18.53.345 1.15.512 1.78.486 1.48.175 2.78-.98 2.772-2.47 0-1.4-.995-2.083-2.35-2.927-1.17-.73-2.193-1.204-2.193-2.38-.014-.876.724-1.573 1.595-1.51 1.443 0 2.04 1.26 2.14 2.5h.297c0-1.636.026-2.194.063-2.652h-.297c-.052.377-.12.57-.287.57-.167-.016-.317-.08-.448-.183-.457-.338-1.02-.51-1.588-.485zm12.792.147c-.4.024-1.057.04-1.657.04-.676 0-1.302-.016-1.667-.04v.26c.885.04 1.052.17 1.052 1.12v6.447c0 .942-.167 1.077-1.052 1.114v.26c.36-.025.99-.035 1.667-.035.6 0 1.256.01 1.657.036v-.26c-.885-.036-1.057-.17-1.057-1.113v-6.448c0-.95.172-1.08 1.057-1.12zm10.56-.184c-2.425 0-4.196 1.91-4.196 4.943 0 2.895 1.573 4.63 4.27 4.63.74.003 1.465-.246 2.038-.71.113-.12.265-.197.427-.22.255.153.397.444.36.74h.26v-2.577c0-.958.09-1.072.662-1.115v-.26c-.313.032-.78.04-1.355.04-.573 0-1.385-.008-1.844-.04v.26c1.1.043 1.32.2 1.32 1.25v1.25c.035.292-.11.573-.377.71-.4.27-.87.41-1.353.405-2.126 0-3.104-1.39-3.104-4.51 0-2.792 1.133-4.562 2.868-4.562.864-.01 1.688.36 2.25 1.015.38.574.61 1.235.657 1.923h.3c0-1.51.012-2.355.053-2.99h-.3c-.053.547-.163.79-.324.79-.105-.008-.193-.056-.267-.128-.656-.552-1.49-.85-2.344-.844zm18.216.183c-.287.024-.77.04-1.21.04-.442 0-1.02-.016-1.333-.04v.26c1.022.04 1.183.3 1.183 1.248v5.563l-4.6-7.07c-.285.024-.635.04-1.015.04-.442 0-.926-.016-1.208-.04v.26c.88.04 1.052.17 1.052 1.12v6.31c0 .954-.172 1.214-1.052 1.25v.26c.282-.025.766-.035 1.208-.035.438 0 1.016.01 1.328.036v-.26c-1.01-.036-1.18-.296-1.18-1.25v-6.858l5.473 8.432h.298v-7.756c0-.948.173-1.208 1.058-1.25z" fill-rule="evenodd"/></g></svg>