<?xml version="1.0" encoding="UTF-8" standalone="no"?>
<svg
   xmlns:dc="http://purl.org/dc/elements/1.1/"
   xmlns:cc="http://creativecommons.org/ns#"
   xmlns:rdf="http://www.w3.org/1999/02/22-rdf-syntax-ns#"
   xmlns:svg="http://www.w3.org/2000/svg"
   xmlns="http://www.w3.org/2000/svg"
   xmlns:sodipodi="http://sodipodi.sourceforge.net/DTD/sodipodi-0.dtd"
   xmlns:inkscape="http://www.inkscape.org/namespaces/inkscape"
   width="151.189"
   height="115.485"
   viewBox="0 0 151.189 115.48531"
   version="1.1"
   id="svg10"
   sodipodi:docname="magellan-brand.svg"
   inkscape:version="0.92.2 (5c3e80d, 2017-08-06)">
  <metadata
     id="metadata16">
    <rdf:RDF>
      <cc:Work
         rdf:about="">
        <dc:format>image/svg+xml</dc:format>
        <dc:type
           rdf:resource="http://purl.org/dc/dcmitype/StillImage" />
      </cc:Work>
    </rdf:RDF>
  </metadata>
  <defs
     id="defs14" />
  <sodipodi:namedview
     pagecolor="#ffffff"
     bordercolor="#666666"
     borderopacity="1"
     objecttolerance="10"
     gridtolerance="10"
     guidetolerance="10"
     inkscape:pageopacity="0"
     inkscape:pageshadow="2"
     inkscape:window-width="2560"
     inkscape:window-height="1027"
     id="namedview12"
     showgrid="false"
     inkscape:zoom="7.5137744"
     inkscape:cx="57.590982"
     inkscape:cy="113.61596"
     inkscape:window-x="-8"
     inkscape:window-y="-8"
     inkscape:window-maximized="1"
     inkscape:current-layer="svg10" />
  <g
     fill="#fff"
     id="g8">
    <path
       style="fill-rule:evenodd;stroke-width:0.99999732"
       d="M 56.900391 0 C 51.880404 4.6259293e-018 40.51737 0.036624944 32.900391 0.015625 L 32.65625 1.3847656 C 38.328235 1.619765 39.431641 2.4476252 39.431641 8.3496094 L 39.431641 48.546875 C 39.431641 54.442859 38.327282 55.275626 32.654297 55.515625 L 32.255859 56.994141 C 34.585853 57.010141 38.920152 56.994141 43.244141 56.994141 C 47.08413 56.994141 51.644382 56.972141 54.234375 56.994141 L 53.964844 55.517578 C 48.288859 55.277579 47.189453 54.446859 47.189453 48.546875 L 47.189453 8.3496094 C 47.189453 2.4526252 48.287859 1.6191406 53.964844 1.6191406 L 60.085938 1.6191406 C 70.53091 1.6191406 72.450863 5.1976396 73.630859 16.474609 L 74.921875 16.474609 C 74.921989 16.473442 74.921761 16.471871 74.921875 16.470703 L 75.568359 16.470703 C 75.568476 16.471936 75.568243 16.473377 75.568359 16.474609 L 74.921875 16.474609 C 74.921761 16.475776 74.921989 16.477349 74.921875 16.478516 L 76.865234 16.478516 C 78.048231 5.2015458 79.964137 1.5566406 90.412109 1.5566406 L 96.533203 1.5566406 C 102.20919 1.5566406 103.30859 2.3831721 103.30859 8.2851562 L 103.30859 48.482422 C 103.30859 54.378406 102.20723 55.207266 96.53125 55.447266 L 96.255859 56.994141 C 98.787853 57.010141 103.41115 56.994141 107.24414 56.994141 C 111.57213 56.994141 115.89038 56.972141 118.23438 56.994141 L 117.83203 55.447266 C 112.16005 55.207266 111.0625 54.375359 111.0625 48.484375 L 111.0625 8.2792969 C 111.0625 2.3793127 112.16005 1.5564056 117.83203 1.3164062 L 117.58789 0.017578125 L 76.220703 0.017578125 C 76.220636 0.018259962 76.220771 0.018849421 76.220703 0.01953125 L 74.275391 0.01953125 C 74.275316 0.018780676 74.275465 0.018328801 74.275391 0.017578125 C 69.186032 0.03491263 61.913539 0 56.900391 0 z M 74.275391 0.017578125 L 76.220703 0.017578125 C 76.220703 0.017578125 76.220703 0.015625 76.220703 0.015625 C 75.708361 0.019339869 74.860996 0.015583535 74.275391 0.017578125 z M 51.287109 77.310547 C 48.115118 77.310547 45.802734 79.811401 45.802734 83.775391 C 45.802734 87.55538 47.859775 89.822266 51.384766 89.822266 C 52.354763 89.832266 53.291877 89.510389 54.046875 88.900391 C 54.192875 88.745391 54.390516 88.640234 54.603516 88.615234 C 54.936515 88.812234 55.120219 89.195985 55.074219 89.583984 L 55.412109 89.583984 L 55.412109 86.212891 C 55.412109 84.962894 55.531393 84.811906 56.275391 84.753906 L 56.275391 84.412109 C 55.868392 84.459109 55.255857 84.472656 54.505859 84.472656 C 53.739861 84.472656 52.695514 84.459109 52.103516 84.412109 L 52.103516 84.753906 C 53.535512 84.810906 53.828125 85.010629 53.828125 86.390625 L 53.828125 88.021484 C 53.875125 88.408483 53.67789 88.776125 53.337891 88.953125 C 52.811892 89.307124 52.192498 89.490375 51.5625 89.484375 C 48.786507 89.484375 47.505859 87.667973 47.505859 83.583984 C 47.505859 79.933994 48.995865 77.621094 51.255859 77.621094 C 52.385856 77.605094 53.465127 78.088362 54.203125 78.943359 C 54.697124 79.697357 54.994641 80.562987 55.056641 81.458984 L 55.443359 81.458984 C 55.443359 79.48299 55.459719 78.380732 55.511719 77.552734 L 55.121094 77.552734 C 55.053094 78.265732 54.912359 78.587891 54.693359 78.587891 C 54.56336 78.572891 54.443469 78.511109 54.355469 78.412109 C 53.495471 77.692111 52.407106 77.3075 51.287109 77.3125 L 51.287109 77.310547 z M 32.292969 77.46875 L 28.28125 87.763672 C 28.12425 88.45767 27.614404 89.014141 26.941406 89.244141 L 26.941406 89.583984 C 27.363405 89.545984 27.792892 89.525297 28.212891 89.529297 C 28.817889 89.529297 29.531642 89.551984 30.181641 89.583984 L 30.181641 89.244141 C 29.207643 89.219141 28.697266 88.964607 28.697266 88.224609 C 28.729266 87.740611 28.844016 87.271124 29.041016 86.828125 L 29.740234 85.03125 L 33.851562 85.03125 L 34.900391 87.818359 C 35.01039 88.068359 35.081563 88.339235 35.101562 88.615234 C 35.101562 89.088233 34.720623 89.219953 33.890625 89.251953 L 33.890625 89.589844 C 34.375624 89.559844 35.194221 89.537109 36.074219 89.537109 C 36.724217 89.537109 37.438345 89.557844 37.902344 89.589844 L 37.902344 89.251953 C 37.319345 89.173953 36.852562 88.737108 36.726562 88.162109 L 32.568359 77.46875 L 32.292969 77.46875 z M 121.51172 77.472656 L 117.5 87.769531 C 117.344 88.463529 116.83315 89.019141 116.16016 89.244141 L 116.16016 89.587891 C 116.58416 89.547891 117.0105 89.530156 117.4375 89.535156 C 118.0375 89.535156 118.75039 89.551891 119.40039 89.587891 L 119.40039 89.244141 C 118.42739 89.224141 117.91797 88.964607 117.91797 88.224609 C 117.94797 87.744611 118.06472 87.27003 118.26172 86.832031 L 118.96094 85.03125 L 123.06836 85.03125 L 124.11523 87.824219 C 124.22923 88.074218 124.29836 88.344094 124.31836 88.621094 C 124.31836 89.094092 123.93237 89.22 123.10938 89.25 L 123.10938 89.59375 C 123.59237 89.55775 124.41102 89.541016 125.29102 89.541016 C 125.93601 89.541016 126.65514 89.559703 127.11914 89.595703 L 127.11914 89.251953 C 126.53514 89.173953 126.0685 88.74292 125.9375 88.169922 L 121.78711 77.472656 L 121.51172 77.472656 z M 104.0625 77.548828 L 104.0625 77.556641 C 104.06345 77.556586 104.06546 77.556695 104.06641 77.556641 L 104.0625 77.548828 z M 104.0625 77.556641 C 103.53627 77.586557 102.68484 77.607422 101.90625 77.607422 C 101.02025 77.607422 100.19761 77.585687 99.724609 77.554688 L 99.724609 77.894531 C 100.88061 77.944531 101.10352 78.117425 101.10352 79.357422 L 101.10352 87.785156 C 101.10352 89.019153 100.88061 89.194188 99.724609 89.242188 L 99.724609 89.585938 C 101.3966 89.533938 103.64302 89.533203 104.66602 89.533203 C 105.80601 89.533203 107.41141 89.533938 108.56641 89.585938 C 108.48341 88.72194 108.45312 87.836155 108.45312 87.410156 C 108.45312 86.862158 108.469 86.37253 108.5 86.019531 L 108.10938 86.019531 C 107.86938 88.382525 107.44349 89.195312 105.3125 89.195312 L 104.0625 89.195312 C 102.9075 89.195312 102.68164 89.019153 102.68164 87.785156 L 102.68164 79.353516 C 102.68164 78.118519 102.9075 77.940578 104.0625 77.892578 L 104.0625 77.556641 z M 64.832031 77.550781 L 64.832031 77.894531 C 65.988028 77.941531 66.212891 78.119472 66.212891 79.355469 L 66.212891 87.779297 C 66.212891 89.019294 65.988028 89.192141 64.832031 89.244141 L 64.832031 89.583984 C 66.504027 89.529985 68.749393 89.53125 69.775391 89.53125 C 70.917388 89.53125 72.521737 89.529985 73.677734 89.583984 C 73.593735 88.718987 73.5625 87.834108 73.5625 87.412109 L 73.556641 87.410156 C 73.556641 86.935158 73.572516 86.488499 73.603516 86.1875 L 73.214844 86.1875 C 72.974844 88.431494 72.552869 89.197266 70.421875 89.197266 L 69.173828 89.197266 C 68.017831 89.197266 67.792969 89.020106 67.792969 87.787109 L 67.792969 83.701172 L 68.923828 83.701172 C 70.403824 83.701172 70.422735 84.861175 70.552734 85.951172 L 70.943359 85.951172 C 70.86136 84.654175 70.845703 84.092155 70.845703 83.535156 C 70.845703 83.285157 70.835938 83.034655 70.835938 82.722656 C 70.835938 82.332657 70.845578 81.843045 70.892578 81.123047 L 70.507812 81.123047 C 70.371813 81.936045 70.403824 83.363281 68.923828 83.363281 L 67.794922 83.363281 L 67.794922 79.353516 C 67.794922 78.119519 68.019784 77.943359 69.175781 77.943359 L 70.591797 77.943359 C 72.394792 77.943359 72.654907 78.608287 72.878906 80.613281 L 73.267578 80.613281 C 73.231578 80.263282 73.216797 79.910499 73.216797 79.5625 C 73.216797 79.170501 73.253938 78.347779 73.335938 77.550781 C 72.27894 77.602781 70.815435 77.603516 69.773438 77.603516 C 68.74844 77.603516 66.504027 77.602781 64.832031 77.550781 z M 5.6777344 77.552734 L 5.6777344 77.896484 C 6.8337313 77.943484 7.0566406 78.119472 7.0566406 79.355469 L 7.0566406 87.603516 C 7.0566406 88.848512 6.8337313 89.188235 5.6777344 89.240234 L 5.6777344 89.580078 C 6.0527334 89.547078 6.6827672 89.529297 7.2597656 89.529297 C 7.8327641 89.529297 8.5890948 89.547078 8.9960938 89.580078 L 8.9960938 89.240234 C 7.6730973 89.188235 7.4472656 88.849512 7.4472656 87.603516 L 7.4472656 78.636719 L 11.746094 89.660156 L 12.015625 89.660156 L 16.121094 78.689453 L 16.121094 87.783203 C 16.121094 89.0192 15.901091 89.190188 14.746094 89.242188 L 14.746094 89.582031 C 15.220092 89.549031 16.035737 89.533203 16.927734 89.533203 C 17.707732 89.533203 18.557892 89.549031 19.087891 89.582031 L 19.087891 89.242188 C 17.932894 89.190188 17.707031 89.0192 17.707031 87.783203 L 17.707031 79.357422 C 17.707031 78.122425 17.932894 77.946437 19.087891 77.898438 L 19.087891 77.552734 C 18.557892 77.588734 17.707732 77.603516 16.927734 77.603516 L 16.121094 77.603516 L 12.460938 87.412109 L 8.7128906 77.552734 C 8.3388916 77.588734 7.7597643 77.603516 7.2597656 77.603516 C 6.6827672 77.603516 6.0527334 77.588734 5.6777344 77.552734 z M 82.458984 77.554688 L 82.458984 77.894531 C 83.613981 77.944531 83.839844 78.117425 83.839844 79.357422 L 83.839844 87.785156 C 83.839844 89.019153 83.613981 89.194188 82.458984 89.242188 L 82.458984 89.585938 C 84.12898 89.533938 86.373534 89.533203 87.394531 89.533203 C 88.534528 89.533203 90.144925 89.533938 91.294922 89.585938 C 91.211922 88.72194 91.181641 87.836155 91.181641 87.410156 C 91.181641 86.862158 91.196375 86.37253 91.234375 86.019531 L 90.84375 86.019531 C 90.603751 88.382525 90.175057 89.195312 88.039062 89.195312 L 86.796875 89.195312 C 85.636878 89.195312 85.412109 89.019153 85.412109 87.785156 L 85.412109 79.353516 C 85.412109 78.118519 85.635878 77.940578 86.796875 77.892578 L 86.796875 77.556641 C 86.276876 77.586641 85.416717 77.607422 84.636719 77.607422 C 83.754721 77.607422 82.931983 77.585687 82.458984 77.554688 z M 134.64062 77.554688 L 134.64062 77.894531 C 135.80362 77.944531 136.02734 78.117425 136.02734 79.357422 L 136.02734 87.601562 C 136.02734 88.846559 135.80362 89.186281 134.64062 89.238281 L 134.64062 89.578125 C 135.01662 89.545125 135.65061 89.527344 136.22461 89.527344 C 136.79761 89.527344 137.55589 89.545125 137.96289 89.578125 L 137.96289 89.238281 C 136.63889 89.186281 136.41602 88.847559 136.41602 87.601562 L 136.41602 78.634766 L 143.57227 89.658203 L 143.96289 89.658203 L 143.96289 79.527344 C 143.96289 78.287347 144.18875 77.944437 145.34375 77.898438 L 145.34375 77.556641 C 144.96975 77.586641 144.33876 77.607422 143.75977 77.607422 C 143.18777 77.607422 142.43153 77.585687 142.01953 77.554688 L 142.01953 77.894531 C 143.35453 77.944531 143.57227 78.2853 143.57227 79.529297 L 143.57227 86.794922 L 137.55664 77.556641 C 137.18264 77.586641 136.72461 77.607422 136.22461 77.607422 C 135.65161 77.607422 135.01662 77.585687 134.64062 77.554688 z M 31.816406 79.619141 L 33.724609 84.6875 L 29.863281 84.6875 L 31.816406 79.619141 z M 121.03516 79.623047 L 122.94336 84.691406 L 119.08203 84.691406 L 121.03516 79.623047 z M 67.957031 105.89453 L 67.958984 105.89648 C 67.338986 105.89648 66.525391 106.12088 66.525391 106.79688 C 66.525391 107.17287 66.838892 107.46936 67.212891 107.44336 C 67.59289 107.46936 67.916266 107.18459 67.947266 106.80859 C 67.942266 106.55859 67.802984 106.32703 67.583984 106.20703 C 67.687984 106.10903 67.832657 106.06775 67.972656 106.09375 C 68.749654 106.04775 69.426281 106.63221 69.488281 107.4082 C 69.415281 108.0222 68.967327 108.5222 68.361328 108.6582 C 67.321331 109.0532 66.257544 109.39759 65.185547 109.68359 C 63.99755 110.08859 63.382812 110.68408 63.382812 111.58008 C 63.372813 112.46408 64.118049 113.16652 64.998047 113.10352 C 65.733045 113.19652 66.409688 112.70837 66.554688 111.98438 C 66.606687 111.36938 65.899155 110.98414 65.410156 111.36914 C 64.925158 111.75414 65.138908 112.53514 65.753906 112.61914 C 65.550907 112.82714 65.257702 112.93125 64.970703 112.90625 C 64.357705 112.93125 63.831531 112.47228 63.769531 111.86328 C 63.874531 111.28028 64.332017 110.82642 64.916016 110.73242 C 65.264015 110.60242 65.826017 110.42542 66.416016 110.23242 C 67.212013 110.51442 67.744516 111.27514 67.728516 112.11914 C 67.728516 113.60314 66.142683 114.49805 64.304688 114.49805 C 62.346693 114.49805 60.804687 113.48231 60.804688 111.69531 C 60.757688 110.65932 61.47705 109.7545 62.498047 109.5625 C 62.795046 109.7125 63.118173 109.81166 63.451172 109.84766 C 63.623171 109.88266 63.790453 109.77356 63.814453 109.60156 C 63.814453 109.39856 63.601062 109.30078 63.289062 109.30078 C 63.019063 109.30378 62.753421 109.33095 62.482422 109.37695 C 62.055423 109.00695 61.810266 108.46844 61.822266 107.89844 C 61.738266 107.02844 62.457034 106.28966 63.332031 106.34766 C 63.71203 106.28966 64.097266 106.45058 64.322266 106.76758 C 63.942267 106.78458 63.633906 107.09852 63.628906 107.47852 C 63.623906 107.85351 63.935548 108.15281 64.310547 108.13281 C 64.706546 108.14781 65.035016 107.83741 65.041016 107.44141 C 65.021016 107.08641 64.842546 106.75792 64.560547 106.54492 C 64.165548 106.25792 63.687171 106.1223 63.201172 106.1543 C 61.754176 106.1543 61.003906 106.9353 61.003906 107.7793 C 61.061906 108.55129 61.578408 109.21117 62.316406 109.45117 C 60.97241 109.72117 59.982156 110.86252 59.910156 112.22852 C 59.910156 114.22851 61.873865 115.46094 64.130859 115.46094 C 66.643853 115.46094 68.107422 113.92456 68.107422 112.35156 C 68.153422 111.38857 67.582638 110.5023 66.681641 110.1543 C 67.337639 109.9623 67.981283 109.7377 68.613281 109.4707 C 69.353279 109.1647 69.837516 108.45129 69.853516 107.6543 C 69.863516 106.6243 68.983029 105.80453 67.957031 105.89453 z M 132.9707 105.89453 C 130.54571 105.89453 128.77539 107.8049 128.77539 110.83789 C 128.77539 113.73288 130.34793 115.4668 133.04492 115.4668 C 133.78492 115.4698 134.50903 115.22181 135.08203 114.75781 C 135.19503 114.63781 135.34777 114.56011 135.50977 114.53711 C 135.76476 114.69011 135.90614 114.98134 135.86914 115.27734 L 136.12891 115.27734 L 136.12891 112.70117 C 136.12891 111.74317 136.21902 111.62894 136.79102 111.58594 L 136.79102 111.32617 C 136.47802 111.35817 136.0125 111.36523 135.4375 111.36523 C 134.8645 111.36523 134.05275 111.35817 133.59375 111.32617 L 133.59375 111.58594 C 134.69375 111.62894 134.91211 111.78594 134.91211 112.83594 L 134.91211 114.08594 C 134.94711 114.37794 134.80216 114.65792 134.53516 114.79492 C 134.13516 115.06492 133.66659 115.20617 133.18359 115.20117 C 131.0576 115.20117 130.07812 113.8114 130.07812 110.69141 C 130.07812 107.89941 131.21227 106.12891 132.94727 106.12891 C 133.81126 106.11891 134.63527 106.48953 135.19727 107.14453 C 135.57726 107.71853 135.80652 108.37841 135.85352 109.06641 L 136.1543 109.06641 C 136.1543 107.55641 136.16603 106.71117 136.20703 106.07617 L 135.90625 106.07617 C 135.85325 106.62317 135.74303 106.86719 135.58203 106.86719 C 135.47703 106.85919 135.39041 106.81028 135.31641 106.73828 C 134.66041 106.18628 133.82665 105.88853 132.97266 105.89453 L 132.9707 105.89453 z M 4.140625 105.89648 C 1.7206315 105.89648 0 107.84877 0 110.75977 C 0 113.73476 1.656866 115.46875 4.1308594 115.46875 C 5.005857 115.46875 5.8610174 115.172 6.5410156 114.625 C 6.6210154 114.563 6.7135003 114.52762 6.8125 114.51562 C 6.9954995 114.51562 7.0848126 114.75125 7.1328125 115.28125 L 7.4277344 115.28125 C 7.3917345 114.62625 7.375 113.73515 7.375 112.16016 L 7.0800781 112.16016 C 7.0730781 112.89015 6.8644677 113.59989 6.4804688 114.21289 C 5.9324702 114.87489 5.1039977 115.24598 4.25 115.20898 C 2.5680045 115.20898 1.3027344 113.60498 1.3027344 110.70898 C 1.3027344 107.88599 2.4220983 106.13086 4.1210938 106.13086 C 5.0060914 106.09386 5.8549234 106.47149 6.4199219 107.14648 C 6.8229208 107.70948 7.0520782 108.38231 7.0800781 109.07031 L 7.375 109.07031 C 7.375 107.56032 7.3917345 106.71508 7.4277344 106.08008 L 7.1308594 106.08008 C 7.0848595 106.61708 6.9728745 106.85742 6.796875 106.85742 C 6.7028753 106.84742 6.6150154 106.80919 6.5410156 106.74219 C 5.8710174 106.17919 5.0166227 105.88244 4.140625 105.89844 L 4.140625 105.89648 z M 18.328125 105.89648 C 15.901132 105.89648 14.1875 107.84877 14.1875 110.75977 C 14.1875 113.73476 15.838366 115.46875 18.318359 115.46875 C 20.740353 115.46875 22.458984 113.50951 22.458984 110.60352 C 22.464984 107.63052 20.808978 105.89648 18.333984 105.89648 L 18.328125 105.89648 z M 109.61914 105.93164 C 108.29114 105.79664 107.13902 106.8545 107.16602 108.1875 C 107.16602 109.6505 108.25028 110.35966 109.48828 111.09766 C 110.69528 111.82265 111.51758 112.42066 111.51758 113.47266 C 111.60158 114.44765 110.80117 115.26403 109.82617 115.20703 C 108.15918 115.20703 107.56117 113.8269 107.45117 112.25391 L 107.1543 112.25391 C 107.1543 114.0869 107.13756 114.83914 107.10156 115.36914 L 107.39844 115.36914 C 107.45144 114.99414 107.5265 114.80078 107.6875 114.80078 C 107.8545 114.81478 108.00377 114.88442 108.13477 114.98242 C 108.66476 115.32742 109.28406 115.4928 109.91406 115.4668 C 111.39406 115.6418 112.6955 114.48804 112.6875 112.99805 C 112.6875 111.59805 111.69093 110.91431 110.33594 110.07031 C 109.16594 109.34031 108.14453 108.8674 108.14453 107.69141 C 108.13053 106.81541 108.86728 106.11864 109.73828 106.18164 C 111.18128 106.18164 111.77891 107.44164 111.87891 108.68164 L 112.17578 108.68164 C 112.17578 107.04565 112.20128 106.4873 112.23828 106.0293 L 111.94141 106.0293 C 111.88941 106.4063 111.8213 106.59961 111.6543 106.59961 C 111.4873 106.58361 111.33803 106.51902 111.20703 106.41602 C 110.75003 106.07802 110.18714 105.90664 109.61914 105.93164 z M 43.349609 106.07812 L 43.349609 106.33789 C 44.234607 106.37289 44.40625 106.50817 44.40625 107.45117 L 44.40625 113.90625 C 44.40625 114.84825 44.235607 114.98253 43.349609 115.01953 L 43.349609 115.2793 C 44.624606 115.2443 46.348908 115.24414 47.128906 115.24414 C 47.998904 115.24414 49.228284 115.24525 50.113281 115.28125 C 50.050281 114.62625 50.025391 113.94409 50.025391 113.62109 L 50.027344 113.62109 C 50.027344 113.26109 50.0365 112.92059 50.0625 112.68359 L 49.759766 112.68359 C 49.579766 114.40159 49.254996 114.98047 47.625 114.98047 L 46.671875 114.98047 C 45.786877 114.98047 45.615234 114.85039 45.615234 113.90039 L 45.615234 110.7793 L 46.478516 110.7793 C 47.613513 110.7793 47.623657 111.667 47.722656 112.5 L 48.025391 112.5 C 47.962391 111.51 47.945312 111.08039 47.945312 110.65039 C 47.945312 110.46439 47.941406 110.2693 47.941406 110.0293 C 47.941406 109.7293 47.947281 109.35964 47.988281 108.80664 L 47.685547 108.80664 C 47.585547 109.42664 47.606559 110.52148 46.476562 110.52148 L 45.613281 110.52148 L 45.613281 107.45312 C 45.613281 106.51113 45.786018 106.375 46.666016 106.375 L 47.75 106.375 C 49.129996 106.375 49.328 106.88597 49.5 108.41797 L 49.802734 108.41797 C 49.770734 108.15197 49.759766 107.88023 49.759766 107.61523 C 49.759766 107.31224 49.785516 106.68908 49.853516 106.08008 C 49.039518 106.11508 47.920857 106.11523 47.130859 106.11523 C 46.333862 106.11523 44.629606 106.11412 43.349609 106.07812 z M 79.144531 106.07812 L 79.144531 106.33789 C 80.030529 106.37789 80.201172 106.50899 80.201172 107.45898 L 80.201172 113.90625 C 80.201172 114.84825 80.030529 114.98253 79.144531 115.01953 L 79.144531 115.2793 C 79.51053 115.2543 80.153674 115.24414 80.763672 115.24414 C 81.32167 115.24414 82.196892 115.28125 82.587891 115.28125 C 85.275883 115.51125 87.52664 113.26998 87.306641 110.58398 C 87.306641 107.68399 85.811023 106.08008 82.707031 106.08008 C 82.207033 106.08008 81.33628 106.10314 80.738281 106.11914 C 80.628282 106.11914 80.529922 106.125 80.419922 106.125 C 79.936923 106.125 79.44753 106.09812 79.144531 106.07812 z M 93.677734 106.07812 L 93.677734 106.33789 C 94.563732 106.37289 94.736328 106.50817 94.736328 107.45117 L 94.736328 113.9043 C 94.736328 114.84629 94.563732 114.98253 93.677734 115.01953 L 93.677734 115.2793 C 94.959731 115.2443 96.676986 115.24414 97.458984 115.24414 C 98.331982 115.24414 99.557362 115.2433 100.44336 115.2793 C 100.38036 114.6243 100.35547 113.94214 100.35547 113.61914 L 100.35352 113.61914 C 100.34752 113.30614 100.36463 112.99559 100.39062 112.68359 L 100.09375 112.68359 C 99.90775 114.40159 99.583121 114.97852 97.953125 114.97852 L 97 114.97852 C 96.115002 114.97852 95.943359 114.84843 95.943359 113.89844 L 95.943359 110.7793 L 96.806641 110.7793 C 97.936638 110.7793 97.952641 111.66505 98.056641 112.49805 L 98.355469 112.49805 C 98.292469 111.50805 98.28125 111.07844 98.28125 110.64844 C 98.28125 110.46244 98.271484 110.2693 98.271484 110.0293 C 98.271484 109.7293 98.281359 109.35964 98.318359 108.80664 L 98.017578 108.80664 C 97.917578 109.42664 97.938591 110.51953 96.808594 110.51953 L 95.943359 110.51953 L 95.943359 107.45312 C 95.943359 106.51113 96.115002 106.375 97 106.375 L 98.083984 106.375 C 99.463981 106.375 99.660985 106.88402 99.833984 108.41602 L 100.13281 108.41602 C 100.10681 108.15002 100.0907 107.88023 100.0957 107.61523 C 100.0957 107.31224 100.12255 106.68712 100.18555 106.07812 C 99.377549 106.11312 98.256935 106.11328 97.460938 106.11328 C 96.66094 106.11328 94.960731 106.11412 93.677734 106.07812 z M 119.08594 106.07812 L 119.08594 106.33789 C 119.97094 106.37789 120.13867 106.50899 120.13867 107.45898 L 120.13867 113.90625 C 120.13867 114.84825 119.97094 114.98253 119.08594 115.01953 L 119.08594 115.2793 C 119.44594 115.2543 120.07691 115.24414 120.75391 115.24414 C 121.3539 115.24414 122.00916 115.25525 122.41016 115.28125 L 122.41016 115.02148 C 121.52516 114.98548 121.35352 114.8512 121.35352 113.9082 L 121.35352 107.45898 C 121.35352 106.50899 121.52516 106.37984 122.41016 106.33984 L 122.41016 106.07812 C 122.01016 106.10212 121.3539 106.11914 120.75391 106.11914 C 120.07791 106.11914 119.45094 106.10212 119.08594 106.07812 z M 143.00391 106.07812 L 143.00391 106.33789 C 143.8839 106.37789 144.05664 106.50899 144.05664 107.45898 L 144.05664 113.76953 C 144.05664 114.72353 143.8839 114.98353 143.00391 115.01953 L 143.00391 115.2793 C 143.28591 115.2543 143.76894 115.24414 144.21094 115.24414 C 144.64894 115.24414 145.22706 115.2533 145.53906 115.2793 L 145.53906 115.01953 C 144.52907 114.98353 144.35938 114.72353 144.35938 113.76953 L 144.35938 106.91211 L 149.83203 115.34375 L 150.13086 115.34375 L 150.13086 107.58789 C 150.13086 106.63989 150.30446 106.37989 151.18945 106.33789 L 151.1875 106.07812 C 150.9005 106.10212 150.41656 106.11719 149.97656 106.11719 C 149.53456 106.11719 148.95753 106.10212 148.64453 106.07812 L 148.64453 106.33789 C 149.66653 106.37789 149.82617 106.63794 149.82617 107.58594 L 149.82617 113.14844 L 145.22656 106.07812 C 144.94156 106.10212 144.59094 106.11914 144.21094 106.11914 C 143.76894 106.11914 143.28591 106.10212 143.00391 106.07812 z M 28.816406 106.08008 L 28.816406 106.33984 C 29.702404 106.37984 29.875 106.50899 29.875 107.45898 L 29.875 113.90625 C 29.875 114.84825 29.702404 114.98448 28.816406 115.02148 L 28.816406 115.28125 C 29.182405 115.25625 29.817502 115.24609 30.4375 115.24609 C 30.995499 115.24609 31.868767 115.28125 32.259766 115.28125 C 34.947758 115.51125 37.197468 113.27193 36.980469 110.58594 C 36.980469 107.68659 35.484533 106.08079 32.376953 106.08008 L 32.375 106.08008 C 31.874774 106.08013 31.010513 106.10511 30.412109 106.12109 C 30.30211 106.12109 30.201797 106.125 30.091797 106.125 C 29.608798 106.125 29.119405 106.10008 28.816406 106.08008 z M 18.275391 106.13086 L 18.28125 106.13086 C 19.878488 106.13519 21.15625 107.89366 21.15625 110.65625 C 21.15625 113.34924 20.051277 115.23633 18.363281 115.23633 C 16.763286 115.23633 15.484375 113.47398 15.484375 110.70898 C 15.489369 108.02017 16.58182 106.13531 18.275391 106.13086 z M 32.052734 106.3125 C 34.755727 106.3125 35.671875 107.71282 35.671875 110.63281 C 35.671875 113.4648 34.907352 115.04688 32.068359 115.04688 C 31.255362 115.04688 31.083984 114.84059 31.083984 113.93359 L 31.083984 107.43359 C 31.083984 106.5376 31.254737 106.3125 32.052734 106.3125 z M 82.378906 106.3125 C 85.082899 106.3125 86.003906 107.71087 86.003906 110.63086 C 86.003906 113.46285 85.234524 115.04688 82.394531 115.04688 C 81.587533 115.04688 81.410156 114.83864 81.410156 113.93164 L 81.410156 107.43164 C 81.410156 106.53564 81.586908 106.3125 82.378906 106.3125 z "
       transform="matrix(1.0000027,0,0,1.0000027,-2.0020181e-4,0)"
       id="path2" />
    <path
       d="M19.088 77.552c-.53.036-1.38.052-2.16.052h-.808l-3.66 9.808-3.747-9.86c-.374.036-.953.052-1.453.052-.577 0-1.208-.016-1.583-.052v.344c1.156.047 1.38.224 1.38 1.46v8.248c0 1.245-.224 1.584-1.38 1.636v.34c.375-.033 1.006-.05 1.583-.05.573 0 1.328.017 1.735.05v-.34c-1.323-.052-1.547-.39-1.547-1.636v-8.968l4.297 11.025h.27L16.12 78.69v9.093c0 1.236-.22 1.408-1.375 1.46v.34c.474-.033 1.29-.05 2.182-.05.78 0 1.63.017 2.16.05v-.34c-1.155-.052-1.38-.224-1.38-1.46v-8.425c0-1.235.225-1.412 1.38-1.46zm13.48-.083h-.276l-4.01 10.295c-.157.694-.667 1.25-1.34 1.48v.34c.422-.038.85-.058 1.27-.054.605 0 1.32.022 1.97.054v-.34c-.974-.025-1.485-.28-1.485-1.02.032-.484.147-.953.344-1.396l.7-1.797h4.11l1.05 2.787c.11.25.18.522.2.798 0 .473-.38.604-1.21.636v.338c.485-.03 1.303-.052 2.183-.052.65 0 1.364.02 1.828.052v-.337c-.583-.078-1.05-.515-1.176-1.09zm1.156 7.218h-3.86l1.953-5.068zm17.563-7.376c-3.172 0-5.484 2.5-5.484 6.464 0 3.78 2.057 6.047 5.582 6.047.97.01 1.907-.312 2.662-.922.146-.155.344-.26.557-.285.333.197.516.582.47.97h.338v-3.372c0-1.25.12-1.4.864-1.458v-.343c-.407.047-1.02.06-1.77.06-.766 0-1.81-.013-2.402-.06v.343c1.432.057 1.724.256 1.724 1.636v1.63c.047.387-.15.756-.49.933-.526.354-1.145.536-1.775.53-2.776 0-4.058-1.816-4.058-5.9 0-3.65 1.49-5.963 3.75-5.963 1.13-.016 2.21.468 2.948 1.323.494.754.792 1.62.854 2.516h.386c0-1.976.016-3.08.068-3.908h-.39c-.068.713-.208 1.036-.427 1.036-.13-.015-.25-.077-.338-.176-.86-.72-1.948-1.105-3.068-1.1zm22.27 10.1c0-.475.016-.923.047-1.224h-.39c-.24 2.244-.662 3.01-2.793 3.01h-1.248c-1.156 0-1.38-.177-1.38-1.41v-4.085h1.13c1.48 0 1.5 1.16 1.63 2.25h.39c-.082-1.297-.098-1.86-.098-2.417 0-.25-.01-.5-.01-.812 0-.39.01-.88.057-1.6h-.385c-.136.813-.104 2.24-1.584 2.24h-1.128v-4.01c0-1.234.224-1.41 1.38-1.41h1.416c1.803 0 2.063.665 2.287 2.67h.39c-.036-.35-.052-.702-.052-1.05 0-.392.038-1.215.12-2.012-1.057.052-2.52.052-3.562.052-1.025 0-3.27 0-4.942-.052v.344c1.156.047 1.38.224 1.38 1.46v8.425c0 1.24-.224 1.413-1.38 1.465v.34c1.672-.054 3.917-.054 4.943-.054 1.142 0 2.746 0 3.902.054-.084-.865-.115-1.75-.115-2.172zm13.24-9.855c-.52.03-1.38.052-2.16.052-.882 0-1.705-.022-2.178-.053v.34c1.155.05 1.38.223 1.38 1.463v8.427c0 1.234-.225 1.41-1.38 1.458v.343c1.67-.052 3.915-.052 4.936-.052 1.14 0 2.75 0 3.9.052-.083-.864-.113-1.75-.113-2.176 0-.548.014-1.037.052-1.39h-.39c-.24 2.363-.668 3.175-2.804 3.175h-1.243c-1.16 0-1.385-.176-1.385-1.41v-8.432c0-1.235.224-1.412 1.385-1.46v-.343zm17.27 0c-.526.03-1.38.052-2.16.052-.886 0-1.71-.022-2.183-.053v.34c1.156.05 1.38.223 1.38 1.463v8.427c0 1.234-.224 1.41-1.38 1.458v.343c1.672-.052 3.92-.052 4.943-.052 1.14 0 2.745 0 3.9.052-.083-.864-.114-1.75-.114-2.176 0-.548.016-1.037.047-1.39h-.39c-.24 2.363-.667 3.175-2.798 3.175h-1.25c-1.155 0-1.38-.176-1.38-1.41v-8.432c0-1.235.225-1.412 1.38-1.46v-.343zm17.72-.084h-.276L117.5 87.77c-.156.694-.667 1.25-1.34 1.475v.343c.424-.04.85-.057 1.277-.052.6 0 1.314.016 1.964.052v-.343c-.973-.02-1.483-.28-1.483-1.02.03-.48.146-.954.343-1.392l.7-1.802h4.108l1.047 2.793c.114.25.182.52.202.797 0 .473-.385.6-1.208.63v.343c.483-.036 1.302-.052 2.182-.052.645 0 1.364.017 1.828.053v-.342c-.584-.078-1.052-.51-1.183-1.083zm1.156 7.22h-3.86l1.953-5.068zm22.4-7.136c-.374.03-1.004.052-1.583.052-.572 0-1.328-.022-1.74-.053v.34c1.335.05 1.553.39 1.553 1.634v7.267l-6.016-9.24c-.374.03-.833.052-1.333.052-.573 0-1.208-.022-1.584-.053v.34c1.163.05 1.387.223 1.387 1.463v8.244c0 1.245-.224 1.584-1.387 1.636v.34c.376-.033 1.01-.05 1.584-.05.573 0 1.333.017 1.74.05v-.34c-1.324-.052-1.547-.39-1.547-1.636v-8.968l7.156 11.025h.39V79.528c0-1.24.225-1.584 1.38-1.63v-.345zM4.14 105.896c-2.42 0-4.14 1.953-4.14 4.864 0 2.975 1.656 4.71 4.13 4.71.875 0 1.73-.298 2.41-.845.08-.062.173-.098.272-.11.183 0 .272.236.32.766h.295c-.036-.655-.052-1.545-.052-3.12H7.08c-.007.73-.216 1.44-.6 2.053-.548.662-1.376 1.032-2.23.995-1.682 0-2.947-1.604-2.947-4.5 0-2.823 1.118-4.577 2.817-4.577.885-.037 1.735.34 2.3 1.015.403.563.632 1.235.66 1.923h.295c0-1.51.016-2.355.052-2.99H7.13c-.046.537-.157.777-.333.777-.094-.01-.182-.048-.256-.115-.67-.563-1.524-.86-2.4-.844zm14.188 0c-2.427 0-4.14 1.953-4.14 4.864 0 2.975 1.65 4.71 4.13 4.71 2.422 0 4.14-1.96 4.14-4.866.006-2.973-1.65-4.708-4.125-4.708zm-.052.235c1.6 0 2.88 1.76 2.88 4.526 0 2.693-1.104 4.58-2.792 4.58-1.6 0-2.88-1.763-2.88-4.528.005-2.692 1.1-4.577 2.797-4.577zm14.1-.05c-.5 0-1.365.024-1.964.04-.11 0-.21.005-.32.005-.483 0-.972-.026-1.275-.046v.26c.886.04 1.058.17 1.058 1.12v6.447c0 .942-.172 1.077-1.058 1.114v.26c.366-.025 1-.035 1.62-.035.558 0 1.432.036 1.823.036 2.688.23 4.937-2.01 4.72-4.696 0-2.9-1.496-4.505-4.605-4.505zm-.324.232c2.703 0 3.62 1.4 3.62 4.32 0 2.832-.765 4.415-3.604 4.415-.813 0-.984-.208-.984-1.115v-6.5c0-.896.17-1.12.968-1.12zm17.975 7.308c0-.36.01-.7.036-.937h-.303c-.18 1.718-.505 2.296-2.135 2.296h-.953c-.885 0-1.057-.13-1.057-1.08v-3.12h.864c1.135 0 1.145.887 1.244 1.72h.303c-.063-.99-.08-1.42-.08-1.85 0-.186-.004-.38-.004-.62 0-.3.005-.67.046-1.223h-.302c-.1.62-.08 1.714-1.21 1.714h-.863v-3.067c0-.942.172-1.078 1.052-1.078h1.084c1.38 0 1.578.51 1.75 2.042h.303c-.032-.266-.043-.537-.043-.802 0-.303.027-.927.095-1.536-.814.035-1.934.035-2.724.035-.797 0-2.5 0-3.78-.036v.26c.885.035 1.057.17 1.057 1.113v6.454c0 .942-.172 1.077-1.058 1.114v.26c1.275-.035 3-.035 3.78-.035.87 0 2.1 0 2.985.036-.063-.655-.088-1.337-.088-1.66zm17.932-7.724c-.62 0-1.433.224-1.433.9 0 .376.312.673.686.647.38.026.704-.26.735-.636-.005-.25-.145-.48-.364-.6.104-.098.25-.14.39-.114.777-.046 1.453.538 1.515 1.314-.073.614-.52 1.114-1.126 1.25-1.04.395-2.104.74-3.176 1.026-1.188.405-1.803 1-1.803 1.896-.01.884.735 1.587 1.615 1.524.735.093 1.412-.396 1.557-1.12.052-.615-.656-1-1.145-.615-.485.385-.272 1.166.343 1.25-.203.208-.495.312-.782.287-.613.025-1.14-.434-1.202-1.043.105-.583.563-1.036 1.147-1.13.348-.13.91-.307 1.5-.5.796.282 1.328 1.042 1.312 1.886 0 1.484-1.585 2.38-3.423 2.38-1.958 0-3.5-1.016-3.5-2.803-.047-1.036.672-1.942 1.693-2.134.297.15.62.25.953.286.172.035.34-.074.364-.246 0-.203-.213-.3-.525-.3-.27.003-.537.03-.808.076-.427-.37-.672-.91-.66-1.48-.084-.87.635-1.608 1.51-1.55.38-.058.765.103.99.42-.38.017-.688.33-.693.71-.005.375.307.676.682.656.396.015.724-.297.73-.693-.02-.355-.198-.683-.48-.896-.395-.287-.874-.422-1.36-.39-1.447 0-2.197.78-2.197 1.624.058.772.574 1.433 1.312 1.673-1.344.27-2.333 1.41-2.405 2.776 0 2 1.963 3.234 4.22 3.234 2.513 0 3.977-1.537 3.977-3.11.046-.963-.526-1.85-1.427-2.198.656-.192 1.3-.416 1.932-.683.74-.306 1.224-1.02 1.24-1.817.01-1.03-.87-1.85-1.896-1.76zm14.748.183c-.5 0-1.37.024-1.968.04-.11 0-.21.005-.32.005-.483 0-.972-.026-1.275-.046v.26c.886.04 1.058.17 1.058 1.12v6.447c0 .942-.172 1.077-1.058 1.114v.26c.366-.025 1.01-.035 1.62-.035.558 0 1.432.036 1.823.036 2.688.23 4.94-2.01 4.72-4.696 0-2.9-1.496-4.505-4.6-4.505zm-.328.232c2.704 0 3.625 1.4 3.625 4.32 0 2.832-.77 4.415-3.61 4.415-.807 0-.983-.208-.983-1.115v-6.5c0-.896.176-1.12.968-1.12zm17.975 7.308c-.005-.313.01-.625.036-.937h-.297c-.186 1.718-.51 2.296-2.14 2.296H97c-.885 0-1.057-.13-1.057-1.08v-3.12h.864c1.13 0 1.146.887 1.25 1.72h.298c-.063-.99-.074-1.42-.074-1.85 0-.186-.01-.38-.01-.62 0-.3.01-.67.047-1.223h-.3c-.1.62-.08 1.714-1.21 1.714h-.864v-3.067c0-.942.172-1.078 1.057-1.078h1.084c1.38 0 1.577.51 1.75 2.042h.297c-.026-.266-.042-.537-.037-.802 0-.303.027-.927.09-1.536-.808.035-1.928.035-2.724.035-.8 0-2.5 0-3.783-.036v.26c.886.035 1.058.17 1.058 1.113v6.454c0 .942-.172 1.077-1.058 1.114v.26c1.282-.035 3-.035 3.782-.035.873 0 2.097 0 2.983.036-.063-.655-.088-1.337-.088-1.66zm9.265-7.688c-1.328-.135-2.48.923-2.453 2.256 0 1.463 1.084 2.172 2.322 2.91 1.207.725 2.03 1.323 2.03 2.375.084.975-.717 1.792-1.692 1.735-1.667 0-2.265-1.38-2.375-2.953h-.297c0 1.833-.016 2.584-.052 3.114h.297c.053-.375.127-.567.288-.567.167.014.317.082.448.18.53.345 1.15.512 1.78.486 1.48.175 2.78-.98 2.772-2.47 0-1.4-.995-2.083-2.35-2.927-1.17-.73-2.193-1.204-2.193-2.38-.014-.876.724-1.573 1.595-1.51 1.443 0 2.04 1.26 2.14 2.5h.297c0-1.636.026-2.194.063-2.652h-.297c-.052.377-.12.57-.287.57-.167-.016-.317-.08-.448-.183-.457-.338-1.02-.51-1.588-.485zm12.792.147c-.4.024-1.057.04-1.657.04-.676 0-1.302-.016-1.667-.04v.26c.885.04 1.052.17 1.052 1.12v6.447c0 .942-.167 1.077-1.052 1.114v.26c.36-.025.99-.035 1.667-.035.6 0 1.256.01 1.657.036v-.26c-.885-.036-1.057-.17-1.057-1.113v-6.448c0-.95.172-1.08 1.057-1.12zm10.56-.184c-2.425 0-4.196 1.91-4.196 4.943 0 2.895 1.573 4.63 4.27 4.63.74.003 1.465-.246 2.038-.71.113-.12.265-.197.427-.22.255.153.397.444.36.74h.26v-2.577c0-.958.09-1.072.662-1.115v-.26c-.313.032-.78.04-1.355.04-.573 0-1.385-.008-1.844-.04v.26c1.1.043 1.32.2 1.32 1.25v1.25c.035.292-.11.573-.377.71-.4.27-.87.41-1.353.405-2.126 0-3.104-1.39-3.104-4.51 0-2.792 1.133-4.562 2.868-4.562.864-.01 1.688.36 2.25 1.015.38.574.61 1.235.657 1.923h.3c0-1.51.012-2.355.053-2.99h-.3c-.053.547-.163.79-.324.79-.105-.008-.193-.056-.267-.128-.656-.552-1.49-.85-2.344-.844zm18.216.183c-.287.024-.77.04-1.21.04-.442 0-1.02-.016-1.333-.04v.26c1.022.04 1.183.3 1.183 1.248v5.563l-4.6-7.07c-.285.024-.635.04-1.015.04-.442 0-.926-.016-1.208-.04v.26c.88.04 1.052.17 1.052 1.12v6.31c0 .954-.172 1.214-1.052 1.25v.26c.282-.025.766-.035 1.208-.035.438 0 1.016.01 1.328.036v-.26c-1.01-.036-1.18-.296-1.18-1.25v-6.858l5.473 8.432h.298v-7.756c0-.948.173-1.208 1.058-1.25z"
       fill-rule="evenodd"
       id="path6" />
  </g>
</svg>
