<svg xmlns="http://www.w3.org/2000/svg" viewBox="0 0 60 60"><path d="M50.976 20.694c-.528-9-7.947-16.194-16.892-16.194-5.43 0-10.688 2.663-13.945 7.008-.076-.04-.155-.066-.23-.102-.2-.096-.4-.187-.605-.27-.114-.044-.228-.085-.343-.125-.203-.07-.41-.133-.62-.19-.114-.03-.228-.063-.344-.09-.225-.05-.455-.09-.687-.124-.1-.015-.2-.035-.3-.046-.333-.037-.67-.06-1.01-.06-4.963 0-9 4.037-9 9 0 .13.008.255.017.38C2.857 22.15 0 26.9 0 31.655 0 38.737 5.762 44.5 12.845 44.5H18c.553 0 1-.447 1-1s-.447-1-1-1h-5.155C6.865 42.5 2 37.635 2 31.654 2 27.5 4.705 23.188 8.433 21.4L9 21.13v-.63c0-.12.008-.242.015-.365l.01-.185-.012-.194C9.007 19.67 9 19.586 9 19.5c0-3.86 3.14-7 7-7 .31 0 .614.027.917.067.078.01.156.023.233.036.267.044.53.102.79.177.034.01.07.017.105.027.285.087.563.197.835.32l.21.102c.24.118.475.248.702.395C21.72 14.873 23 17.038 23 19.5c0 .553.447 1 1 1s1-.447 1-1c0-2.754-1.246-5.22-3.2-6.87 2.867-3.75 7.588-6.13 12.284-6.13 7.745 0 14.178 6.135 14.85 13.888-1.022-.072-2.553-.11-4.084.124-.546.083-.92.593-.838 1.14.075.494.5.85.987.85.05 0 .1-.005.15-.013 2.227-.338 4.548-.022 4.684-.003C54.49 23.372 58 27.66 58 32.472c0 5.53-4.5 10.028-10.028 10.028H44c-.553 0-1 .447-1 1s.447 1 1 1h3.972C54.604 44.5 60 39.104 60 32.472c0-5.49-3.827-10.412-9.024-11.778z"/><path d="M38.293 45.793L32 52.086V31.5c0-.553-.447-1-1-1s-1 .447-1 1v20.586l-6.293-6.293c-.39-.39-1.023-.39-1.414 0s-.39 1.023 0 1.414l8 8c.09.092.202.165.325.216.122.05.252.077.382.077s.26-.026.382-.077c.123-.05.234-.124.326-.217l8-8c.39-.39.39-1.022 0-1.413s-1.024-.39-1.415 0z"/></svg>